<?xml version="1.0" encoding="UTF-8" standalone="no"?>
<!-- Created with Inkscape (http://www.inkscape.org/) -->

<svg
   width="210mm"
   height="56mm"
   viewBox="0 0 210 56"
   version="1.1"
   id="svg1"
   xmlns="http://www.w3.org/2000/svg"
   xmlns:svg="http://www.w3.org/2000/svg">
  <defs
     id="defs1" />
  <g
     id="layer1">
    <g
       style="fill:none;stroke:#000000;stroke-linecap:round;stroke-linejoin:round"
       transform="scale(0.264583)"
       id="g12">
      <g
         transform="translate(103.25,90.9338)"
         id="g11">
        <path
           d="M 472,662 V 158 L 441,63 410,31.5 346,0 H 284 L 220,31.5 189,63 158,158 v 62"
           style="stroke-width:0.04306in"
           transform="scale(0.064,-0.064)"
           id="path2" />
        <path
           d="M 346,441 284,410 220,346 189,252 V 189 L 220,94.5 284,31.5 346,0 h 95 l 63,31.5 63,63 31,94.5 v 63 l -31,94 -63,64 -63,31 h -95"
           style="stroke-width:0.04306in"
           transform="matrix(0.064,0,0,-0.064,32.256,0)"
           id="path3" />
        <path
           d="M 220,662 V 0 m 0,315 95,95 63,31 h 94 l 64,-31 31,-95 V 0"
           style="stroke-width:0.04306in"
           transform="matrix(0.064,0,0,-0.064,70.528,0)"
           id="path4" />
        <path
           d="M 220,441 V 0 m 0,315 95,95 63,31 h 94 l 64,-31 31,-95 V 0"
           style="stroke-width:0.04306in"
           transform="matrix(0.064,0,0,-0.064,108.8,0)"
           id="path5" />
        <path
           d="M 346,662 V 0 M 126,662 h 441"
           style="stroke-width:0.04306in"
           transform="matrix(0.064,0,0,-0.064,171.264,0)"
           id="path6" />
        <path
           d="m 189,252 h 378 v 63 l -31,63 -32,32 -63,31 H 346 L 284,410 220,346 189,252 V 189 L 220,94.5 284,31.5 346,0 h 95 l 63,31.5 63,63"
           style="stroke-width:0.04306in"
           transform="matrix(0.064,0,0,-0.064,203.52,0)"
           id="path7" />
        <path
           d="M 252,662 V 126 L 284,31.5 346,0 h 64 M 158,441 h 220"
           style="stroke-width:0.04306in"
           transform="matrix(0.064,0,0,-0.064,239.808,0)"
           id="path8" />
        <path
           d="M 252,662 V 126 L 284,31.5 346,0 h 64 M 158,441 h 220"
           style="stroke-width:0.04306in"
           transform="matrix(0.064,0,0,-0.064,264,0)"
           id="path9" />
        <path
           d="m 189,662 31,-32 32,32 -32,31 -31,-31 M 220,441 V 0"
           style="stroke-width:0.04306in"
           transform="matrix(0.064,0,0,-0.064,288.192,0)"
           id="path10" />
        <path
           d="m 536,346 -32,64 -94,31 h -95 l -95,-31 -31,-64 31,-62 64,-32 157,-32 63,-31 32,-63 V 94.5 L 504,31.5 410,0 h -95 l -95,31.5 -31,63"
           style="stroke-width:0.04306in"
           transform="matrix(0.064,0,0,-0.064,304.32,0)"
           id="path11" />
      </g>
    </g>
  </g>
</svg>
