<?xml version="1.0" encoding="UTF-8" standalone="no"?>
<!-- Created with Inkscape (http://www.inkscape.org/) -->

<svg
   width="110.89987mm"
   height="16.953854mm"
   viewBox="0 0 110.89987 16.953854"
   version="1.1"
   id="svg1"
   inkscape:version="1.3.2 (091e20e, 2023-11-25, custom)"
   sodipodi:docname="name.svg"
   inkscape:export-filename="name.svg"
   inkscape:export-xdpi="96"
   inkscape:export-ydpi="96"
   xmlns:inkscape="http://www.inkscape.org/namespaces/inkscape"
   xmlns:sodipodi="http://sodipodi.sourceforge.net/DTD/sodipodi-0.dtd"
   xmlns="http://www.w3.org/2000/svg"
   xmlns:svg="http://www.w3.org/2000/svg">
  <sodipodi:namedview
     id="namedview1"
     pagecolor="#ffffff"
     bordercolor="#000000"
     borderopacity="0.25"
     inkscape:showpageshadow="2"
     inkscape:pageopacity="0.0"
     inkscape:pagecheckerboard="0"
     inkscape:deskcolor="#d1d1d1"
     inkscape:document-units="mm"
     inkscape:zoom="1.7531987"
     inkscape:cx="279.77434"
     inkscape:cy="97.536009"
     inkscape:window-width="1280"
     inkscape:window-height="730"
     inkscape:window-x="-6"
     inkscape:window-y="-6"
     inkscape:window-maximized="1"
     inkscape:current-layer="layer1" />
  <defs
     id="defs1">
    <rect
       x="68.44632"
       y="104.95103"
       width="440.33801"
       height="143.73727"
       id="rect1" />
  </defs>
  <g
     inkscape:label="Layer 1"
     inkscape:groupmode="layer"
     id="layer1"
     transform="translate(-47.863202,-29.274819)">
    <path
       d="m 52.208403,46.218397 q -1.467554,0 -2.596441,-0.880531 -1.128887,-0.880532 -1.69333,-2.257774 -0.04516,-0.135467 -0.04516,-0.225778 0,-0.2032 0.146755,-0.304799 0.146755,-0.1016 0.304799,-0.1016 0.180622,0 0.270933,0.07902 0.09031,0.07902 0.158044,0.214488 0.428977,1.128887 1.354665,1.851375 0.925687,0.722488 2.09973,0.722488 1.174042,0 2.020707,-0.474133 0.846666,-0.474132 1.320798,-1.332086 0.474133,-0.857955 0.474133,-2.009419 V 30.639757 q 0,-0.180622 0.135466,-0.316089 0.135467,-0.135466 0.361244,-0.135466 0.2032,0 0.327377,0.135466 0.124178,0.135467 0.124178,0.316089 V 41.49965 q 0,1.39982 -0.59831,2.472262 -0.59831,1.072443 -1.670753,1.659464 -1.072443,0.587021 -2.49484,0.587021 z"
       style="fill:none;stroke:#000000;stroke-width:0.000214037in;stroke-linecap:round;stroke-linejoin:round"
       id="path1"
       inkscape:label="path1" />
    <path
       d="m 71.534935,40.30303 q 0,1.670752 -0.722487,3.014128 -0.722488,1.343375 -1.975553,2.122307 -1.253064,0.778932 -2.856084,0.778932 -1.580442,0 -2.844795,-0.778932 -1.264353,-0.778932 -1.99813,-2.122307 -0.733777,-1.343376 -0.733777,-3.014128 0,-1.693331 0.733777,-3.036707 0.733777,-1.343375 1.99813,-2.122307 1.264353,-0.778932 2.844795,-0.778932 1.60302,0 2.856084,0.778932 1.253065,0.778932 1.975553,2.122307 0.722487,1.343376 0.722487,3.036707 z m -0.903109,0 q 0,-1.467554 -0.59831,-2.607729 -0.598311,-1.140176 -1.648175,-1.80622 -1.049865,-0.666043 -2.40453,-0.666043 -1.332086,0 -2.39324,0.666043 -1.061154,0.666044 -1.670753,1.80622 -0.609599,1.140175 -0.609599,2.607729 0,1.444975 0.609599,2.585151 0.609599,1.140176 1.670753,1.806219 1.061154,0.666043 2.39324,0.666043 1.354665,0 2.40453,-0.666043 1.049864,-0.666043 1.648175,-1.806219 0.59831,-1.140176 0.59831,-2.585151 z"
       style="fill:none;stroke:#000000;stroke-width:0.000214037in;stroke-linecap:round;stroke-linejoin:round"
       id="path2" />
    <path
       d="m 79.50499,34.590861 q 1.354664,0 2.246485,0.587022 0.891821,0.587021 1.332087,1.580441 0.440265,0.993421 0.440265,2.190041 v 6.5927 q 0,0.180622 -0.135466,0.316089 -0.135466,0.135466 -0.316088,0.135466 -0.2032,0 -0.327378,-0.135466 -0.124177,-0.135467 -0.124177,-0.316089 v -6.5927 q 0,-0.970843 -0.316088,-1.761064 -0.316089,-0.79022 -0.993421,-1.264353 -0.677332,-0.474133 -1.806219,-0.474133 -0.970843,0 -1.89653,0.474133 -0.925688,0.474133 -1.523998,1.264353 -0.59831,0.790221 -0.59831,1.761064 v 6.5927 q 0,0.180622 -0.135466,0.316089 -0.135467,0.135466 -0.316089,0.135466 -0.203199,0 -0.327377,-0.135466 -0.124178,-0.135467 -0.124178,-0.316089 V 29.736647 q 0,-0.180622 0.135467,-0.316088 0.135466,-0.135467 0.316088,-0.135467 0.2032,0 0.327377,0.135467 0.124178,0.135466 0.124178,0.316088 v 7.879631 l -0.564443,1.083732 q 0,-0.812799 0.406399,-1.557864 0.406399,-0.745065 1.072442,-1.320798 0.666044,-0.575732 1.478842,-0.903109 0.812799,-0.327378 1.625598,-0.327378 z"
       style="fill:none;stroke:#000000;stroke-width:0.000214037in;stroke-linecap:round;stroke-linejoin:round"
       id="path3" />
    <path
       d="m 92.396796,34.365084 q 1.422398,0 2.314219,0.564443 0.89182,0.564444 1.309509,1.535287 0.417688,0.970843 0.417688,2.167463 v 6.908788 q 0,0.180622 -0.135467,0.316089 -0.135466,0.135466 -0.316088,0.135466 -0.2032,0 -0.327377,-0.135466 -0.124178,-0.135467 -0.124178,-0.316089 v -6.818477 q 0,-0.970843 -0.327377,-1.761064 -0.327377,-0.790221 -1.038576,-1.264353 -0.711199,-0.474133 -1.862664,-0.474133 -0.99342,0 -1.941685,0.474133 -0.948265,0.474132 -1.569153,1.264353 -0.620888,0.790221 -0.620888,1.761064 v 6.818477 q 0,0.180622 -0.135466,0.316089 -0.135467,0.135466 -0.316089,0.135466 -0.203199,0 -0.327377,-0.135466 -0.124178,-0.135467 -0.124178,-0.316089 V 35.177883 q 0,-0.180622 0.135467,-0.316089 0.135466,-0.135466 0.316088,-0.135466 0.2032,0 0.327377,0.135466 0.124178,0.135467 0.124178,0.316089 v 2.212618 l -0.564443,1.083732 q 0,-0.812799 0.428977,-1.557864 0.428977,-0.745066 1.128887,-1.320798 0.69991,-0.575733 1.546575,-0.90311 0.846665,-0.327377 1.682041,-0.327377 z"
       style="fill:none;stroke:#000000;stroke-width:0.000214037in;stroke-linecap:round;stroke-linejoin:round"
       id="path4" />
    <path
       d="m 111.13642,45.99262 q -0.2032,0 -0.32738,-0.135466 -0.12418,-0.135467 -0.12418,-0.316089 V 30.730068 h 0.90311 v 14.810997 q 0,0.180622 -0.13547,0.316089 -0.13546,0.135466 -0.31608,0.135466 z m -5.48639,-14.946464 q -0.18063,0 -0.31609,-0.124177 -0.13547,-0.124178 -0.13547,-0.3048 0,-0.180622 0.13547,-0.304799 0.13546,-0.124178 0.31609,-0.124178 h 10.97278 q 0.18062,0 0.31609,0.124178 0.13546,0.124177 0.13546,0.304799 0,0.2032 -0.13546,0.316088 -0.13547,0.112889 -0.31609,0.112889 z"
       style="fill:none;stroke:#000000;stroke-width:0.000214037in;stroke-linecap:round;stroke-linejoin:round"
       id="path5" />
    <path
       d="m 124.81835,46.218397 q -1.69333,0 -2.99155,-0.722487 -1.29822,-0.722488 -2.04328,-2.043286 -0.74507,-1.320798 -0.74507,-3.104439 0,-1.89653 0.73378,-3.228617 0.73378,-1.332086 1.89653,-2.043285 1.16275,-0.711199 2.47226,-0.711199 0.94827,0 1.85138,0.304799 0.90311,0.3048 1.6143,0.948265 0.7112,0.643466 1.15147,1.60302 0.44027,0.959554 0.48542,2.291641 0,0.180622 -0.13547,0.327377 -0.13546,0.146755 -0.31608,0.146755 h -9.21172 l -0.13547,-0.857954 h 9.09883 l -0.22578,0.2032 v -0.4064 q -0.11289,-1.19662 -0.75635,-2.009418 -0.64347,-0.812799 -1.54658,-1.230487 -0.90311,-0.417688 -1.87395,-0.417688 -0.67733,0 -1.4224,0.304799 -0.74506,0.304799 -1.37724,0.925687 -0.63217,0.620888 -1.02729,1.569153 -0.39511,0.948265 -0.39511,2.212619 0,1.377242 0.55316,2.528707 0.55315,1.151464 1.64817,1.851374 1.09502,0.69991 2.69804,0.69991 0.76765,0 1.44498,-0.259644 0.67733,-0.259644 1.2192,-0.688621 0.54186,-0.428977 0.88053,-0.925687 0.18062,-0.2032 0.38382,-0.2032 0.15804,0 0.27093,0.124178 0.11289,0.124177 0.11289,0.282222 0,0.158044 -0.0903,0.270932 -0.69991,0.90311 -1.79493,1.580442 -1.09502,0.677332 -2.42711,0.677332 z"
       style="fill:none;stroke:#000000;stroke-width:0.000214037in;stroke-linecap:round;stroke-linejoin:round"
       id="path6" />
    <path
       d="m 131.2532,34.636017 h 5.23803 q 0.18062,0 0.3048,0.135466 0.12418,0.135467 0.12418,0.293511 0,0.180622 -0.12418,0.304799 -0.12418,0.124178 -0.3048,0.124178 h -5.23803 q -0.15805,0 -0.29351,-0.135467 -0.13547,-0.135466 -0.13547,-0.29351 0,-0.180622 0.13547,-0.3048 0.13546,-0.124177 0.29351,-0.124177 z m 2.30293,-3.318928 q 0.2032,0 0.32737,0.135466 0.12418,0.135467 0.12418,0.316089 v 11.763002 q 0,0.745066 0.19191,1.095021 0.19191,0.349955 0.48542,0.451555 0.29351,0.101599 0.56445,0.101599 0.15804,0 0.27093,-0.04515 0.11289,-0.04516 0.27093,-0.04516 0.15805,0 0.27093,0.124178 0.11289,0.124178 0.11289,0.282222 0,0.203199 -0.25964,0.349955 -0.25964,0.146755 -0.64347,0.146755 -0.13546,0 -0.48542,-0.01129 -0.34995,-0.01129 -0.74506,-0.2032 -0.39511,-0.19191 -0.66605,-0.699909 -0.27093,-0.508 -0.27093,-1.50142 V 31.768644 q 0,-0.180622 0.13547,-0.316089 0.13546,-0.135466 0.31609,-0.135466 z"
       style="fill:none;stroke:#000000;stroke-width:0.000214037in;stroke-linecap:round;stroke-linejoin:round"
       id="path7" />
    <path
       d="m 138.38768,34.636017 h 5.23803 q 0.18062,0 0.3048,0.135466 0.12418,0.135467 0.12418,0.293511 0,0.180622 -0.12418,0.304799 -0.12418,0.124178 -0.3048,0.124178 h -5.23803 q -0.15805,0 -0.29351,-0.135467 -0.13547,-0.135466 -0.13547,-0.29351 0,-0.180622 0.13547,-0.3048 0.13546,-0.124177 0.29351,-0.124177 z m 2.30293,-3.318928 q 0.2032,0 0.32737,0.135466 0.12418,0.135467 0.12418,0.316089 v 11.763002 q 0,0.745066 0.19191,1.095021 0.19191,0.349955 0.48542,0.451555 0.29351,0.101599 0.56445,0.101599 0.15804,0 0.27093,-0.04515 0.11289,-0.04516 0.27093,-0.04516 0.15805,0 0.27093,0.124178 0.11289,0.124178 0.11289,0.282222 0,0.203199 -0.25964,0.349955 -0.25964,0.146755 -0.64347,0.146755 -0.13546,0 -0.48542,-0.01129 -0.34995,-0.01129 -0.74506,-0.2032 -0.39511,-0.19191 -0.66605,-0.699909 -0.27093,-0.508 -0.27093,-1.50142 V 31.768644 q 0,-0.180622 0.13547,-0.316089 0.13546,-0.135466 0.31609,-0.135466 z"
       style="fill:none;stroke:#000000;stroke-width:0.021;stroke-linecap:round;stroke-linejoin:round;stroke-dasharray:none"
       id="path8"
       inkscape:label="path8" />
    <path
       d="m 147.46384,45.541065 q 0,0.180622 -0.13546,0.316089 -0.13547,0.135466 -0.31609,0.135466 -0.2032,0 -0.32738,-0.135466 -0.12418,-0.135467 -0.12418,-0.316089 V 34.816639 q 0,-0.180622 0.13547,-0.316089 0.13547,-0.135466 0.31609,-0.135466 0.2032,0 0.32737,0.135466 0.12418,0.135467 0.12418,0.316089 z m -0.45155,-12.711267 q -0.36125,0 -0.57574,-0.2032 -0.21448,-0.2032 -0.21448,-0.519288 v -0.180622 q 0,-0.316088 0.22577,-0.519288 0.22578,-0.2032 0.58702,-0.2032 0.31609,0 0.53058,0.2032 0.21449,0.2032 0.21449,0.519288 v 0.180622 q 0,0.316088 -0.21449,0.519288 -0.21449,0.2032 -0.55315,0.2032 z"
       style="fill:none;stroke:#000000;stroke-width:0.000214037in;stroke-linecap:round;stroke-linejoin:round"
       id="path9" />
    <path
       d="m 150.57966,44.186401 q -0.15805,-0.270933 -0.14676,-0.440266 0.0113,-0.169333 0.16933,-0.282222 0.11289,-0.112889 0.3048,-0.1016 0.19191,0.01129 0.32738,0.169333 0.58702,0.835377 1.50142,1.354665 0.9144,0.519288 2.15617,0.519288 0.74507,0 1.43369,-0.248355 0.68862,-0.248356 1.12889,-0.745066 0.44026,-0.49671 0.44026,-1.219198 0,-0.767643 -0.42897,-1.230487 -0.42898,-0.462843 -1.10631,-0.733776 -0.67734,-0.270933 -1.4224,-0.451555 -0.79022,-0.2032 -1.50142,-0.462844 -0.7112,-0.259644 -1.25306,-0.654754 -0.54187,-0.395111 -0.85796,-0.936976 -0.31609,-0.541866 -0.31609,-1.286931 0,-0.880532 0.47414,-1.580442 0.47413,-0.69991 1.33208,-1.095021 0.85796,-0.39511 1.98684,-0.39511 0.54187,0 1.15147,0.135466 0.6096,0.135467 1.2192,0.462844 0.60959,0.327377 1.12888,0.914398 0.18062,0.135467 0.16934,0.327378 -0.0113,0.191911 -0.16934,0.349955 -0.13546,0.09031 -0.29351,0.09031 -0.15804,0 -0.27093,-0.135467 -0.58702,-0.654754 -1.36595,-0.970843 -0.77894,-0.316088 -1.65947,-0.316088 -0.74506,0 -1.38853,0.248355 -0.64346,0.248355 -1.04986,0.733777 -0.4064,0.485421 -0.4064,1.230487 0.0452,0.699909 0.48542,1.151464 0.44026,0.451555 1.17404,0.745066 0.73378,0.29351 1.65946,0.541865 0.74507,0.180622 1.38854,0.417689 0.64346,0.237066 1.12888,0.59831 0.48542,0.361244 0.76765,0.903109 0.28222,0.541866 0.28222,1.354665 0,0.948265 -0.508,1.636886 -0.508,0.688621 -1.39982,1.061154 -0.89182,0.372532 -2.04329,0.372532 -1.17404,0 -2.25777,-0.474132 -1.08373,-0.474133 -1.96426,-1.557863 z"
       style="fill:none;stroke:#000000;stroke-width:0.000214037in;stroke-linecap:round;stroke-linejoin:round"
       id="path10" />
  </g>
</svg>
